<svg xmlns="http://www.w3.org/2000/svg" xmlns:xlink="http://www.w3.org/1999/xlink" width="500" zoomAndPan="magnify" viewBox="0 0 375 374.999991" height="500" preserveAspectRatio="xMidYMid meet" version="1.0"><defs><g/><clipPath id="2bcef8816c"><path d="M 75 67.980469 L 238 67.980469 L 238 173 L 75 173 Z M 75 67.980469 " clip-rule="nonzero"/></clipPath><clipPath id="60b6e7d0fe"><path d="M 80 151 L 269 151 L 269 261.480469 L 80 261.480469 Z M 80 151 " clip-rule="nonzero"/></clipPath><clipPath id="f6707799cb"><path d="M 78.472656 0 L 163.222656 0 L 163.222656 108 L 78.472656 108 Z M 78.472656 0 " clip-rule="nonzero"/></clipPath></defs><g clip-path="url(#2bcef8816c)"><path fill="#737373" d="M 90.507812 170.796875 C 90.355469 168.792969 90.277344 166.769531 90.277344 164.730469 C 90.277344 156.472656 91.507812 148.511719 93.792969 140.996094 C 96.921875 149.789062 107.917969 156.183594 115.566406 160.644531 C 117.804688 161.953125 120.109375 163.171875 122.253906 164.601562 C 126.355469 163.53125 130.410156 162.351562 134.410156 161.082031 C 133.625 158.929688 133.257812 156.125 133.707031 154.648438 C 134.828125 150.96875 138.265625 151.929688 141.484375 151.652344 C 152.035156 150.742188 148.785156 133.800781 153.484375 127.507812 C 156.921875 122.898438 163.855469 120.101562 163.882812 114.363281 C 163.902344 109.605469 158.796875 106.023438 158.707031 101.265625 C 158.699219 100.789062 158.738281 100.316406 158.816406 99.839844 C 159.097656 98.015625 159.820312 96.222656 159.691406 94.386719 C 159.425781 90.699219 155.988281 88.101562 153.15625 85.394531 C 159.195312 83.980469 165.492188 83.214844 171.96875 83.214844 C 180.375 83.214844 188.488281 84.484375 196.117188 86.84375 C 193.972656 92.730469 198.679688 102.804688 203.914062 106.113281 C 207.847656 108.601562 213.371094 109.574219 215.128906 113.875 C 215.4375 114.640625 215.578125 115.402344 215.605469 116.15625 C 222.78125 109.949219 229.535156 103.277344 235.820312 96.152344 C 236.734375 95.121094 237.382812 94.386719 237.957031 93.871094 C 220.652344 77.8125 197.46875 67.988281 171.96875 67.988281 C 118.429688 67.988281 75.019531 111.308594 75.019531 164.738281 C 75.019531 167.316406 75.117188 169.863281 75.316406 172.382812 C 80.433594 171.984375 85.488281 171.460938 90.507812 170.796875 Z M 90.507812 170.796875 " fill-opacity="1" fill-rule="nonzero"/></g><g clip-path="url(#60b6e7d0fe)"><path fill="#737373" d="M 256.574219 158.335938 C 255.878906 158.730469 255.371094 159.027344 255.140625 159.167969 C 239.230469 168.871094 222.171875 176.902344 204.34375 183.128906 C 204.253906 183.929688 204.242188 184.722656 204.390625 185.515625 C 205.195312 190.015625 209.617188 193.851562 214.1875 193.992188 C 216.292969 194.0625 218.675781 193.566406 220.304688 194.902344 C 221.289062 195.71875 221.714844 197.003906 222.054688 198.234375 C 224.269531 206.273438 224.875 214.75 223.824219 223.015625 C 223.613281 224.683594 223.34375 226.378906 223.445312 228.042969 C 209.398438 239.433594 191.488281 246.261719 171.980469 246.261719 C 168.074219 246.261719 164.230469 245.984375 160.476562 245.449219 C 160.515625 244.765625 160.578125 244.09375 160.675781 243.417969 C 161.203125 240.019531 162.988281 236.835938 165.621094 234.613281 C 167.371094 233.148438 169.675781 231.71875 169.734375 229.441406 C 169.792969 226.992188 167.25 225.457031 165.542969 223.699219 C 162.207031 220.28125 161.808594 214.839844 164.699219 211.210938 C 168.464844 206.492188 172.039062 201.554688 175.585938 196.617188 C 176.789062 194.945312 178.058594 193.039062 177.769531 191 C 177.769531 190.980469 177.761719 190.96875 177.761719 190.949219 C 162.492188 194.617188 146.828125 197.027344 130.976562 198.097656 C 127.191406 198.355469 123.433594 198.523438 119.699219 198.632812 C 119.34375 202.070312 119.621094 205.589844 120.613281 208.703125 C 122.75 215.394531 128.550781 220.539062 135.15625 222.957031 C 136.894531 223.59375 138.742188 224.078125 140.203125 225.207031 C 141.671875 226.339844 142.667969 228.351562 141.960938 230.054688 C 141.542969 231.078125 140.570312 231.910156 140.558594 233.007812 C 140.550781 233.773438 141.015625 234.445312 141.453125 235.0625 C 142.269531 236.191406 143.808594 238.898438 145.636719 241.929688 C 124.21875 234.65625 106.808594 218.734375 97.546875 198.355469 C 94.996094 198.214844 92.453125 198.046875 89.941406 197.828125 L 89.570312 197.796875 C 87.007812 197.582031 83.859375 197.304688 80.492188 196.828125 C 93.753906 234.488281 129.703125 261.488281 171.980469 261.488281 C 225.519531 261.488281 268.929688 218.167969 268.929688 164.738281 C 268.929688 160.179688 268.601562 155.6875 267.996094 151.296875 C 265.78125 152.960938 262.195312 155.09375 256.574219 158.335938 Z M 256.574219 158.335938 " fill-opacity="1" fill-rule="nonzero"/></g><path fill="#737373" d="M 206.070312 128.410156 C 205.039062 127.992188 166.296875 165.78125 89.125 174.878906 C 84.574219 175.414062 70.71875 176.933594 66.964844 176.246094 C 62.703125 175.476562 59.144531 172.886719 63.359375 165.355469 C 60.496094 168.785156 57.039062 171.570312 57 176.535156 C 56.863281 191.324219 79.648438 193.121094 90.265625 194.03125 C 103.707031 195.191406 122.699219 193.921875 135.992188 191.632812 C 168.382812 186.042969 185.113281 175.863281 223.992188 156.402344 C 223.992188 156.402344 224 145.050781 223.992188 136.476562 C 223.972656 136.457031 216.640625 132.699219 206.070312 128.410156 Z M 206.070312 128.410156 " fill-opacity="1" fill-rule="nonzero"/><path fill="#737373" d="M 309.796875 83.769531 C 307.085938 79.457031 295.820312 81.597656 291.5 84.304688 L 286.820312 87.238281 L 240.429688 76.089844 C 239.101562 75.703125 237.558594 75.949219 236.269531 76.753906 C 233.558594 78.445312 232.960938 81.886719 235.066406 83.691406 L 259.363281 102.832031 L 234.191406 124.699219 L 222.3125 119.714844 C 220.910156 119.128906 219.324219 119.257812 218.042969 120.0625 L 213.859375 122.679688 C 212.875 123.292969 212.925781 124.730469 213.949219 125.277344 L 229.445312 133.742188 L 230.167969 151.089844 C 230.21875 152.238281 231.5 152.914062 232.472656 152.296875 L 236.65625 149.679688 C 237.9375 148.878906 238.753906 147.5 238.832031 145.992188 L 239.449219 134.167969 L 268.960938 120.28125 L 276.597656 155.410156 C 277.304688 158.085938 280.660156 159.050781 283.375 157.355469 C 284.664062 156.550781 285.558594 155.273438 285.785156 153.90625 L 296.675781 102.921875 L 301.351562 99.988281 C 305.671875 97.28125 312.507812 88.082031 309.796875 83.769531 Z M 300.726562 96.546875 C 301.640625 88.953125 294.101562 85.953125 294.101562 85.953125 C 294.101562 85.953125 301.800781 82.351562 304.582031 86.792969 C 307.511719 91.472656 300.726562 96.546875 300.726562 96.546875 Z M 300.726562 96.546875 " fill-opacity="1" fill-rule="nonzero"/><g clip-path="url(#f6707799cb)"><path fill="#5e17eb" d="M 154.933594 42.582031 C 154.933594 23.664062 139.671875 8.324219 120.847656 8.324219 C 102.019531 8.324219 86.761719 23.664062 86.761719 42.582031 C 86.761719 61.503906 102.019531 76.84375 120.847656 76.84375 C 139.671875 76.84375 154.933594 61.503906 154.933594 42.582031 Z M 120.847656 0.00390625 C 144.246094 0.00390625 163.214844 19.0625 163.214844 42.582031 C 163.214844 80.3125 120.847656 108.003906 120.847656 108.003906 C 120.847656 108.003906 78.476562 80.3125 78.476562 42.582031 C 78.476562 19.0625 97.445312 0.00390625 120.847656 0.00390625 " fill-opacity="1" fill-rule="nonzero"/></g><path fill="#5e17eb" d="M 143.570312 36.160156 C 143.335938 35.433594 142.570312 34.160156 140.058594 33.789062 L 129.082031 32.191406 L 124.175781 22.191406 C 123.050781 19.90625 121.609375 19.566406 120.847656 19.566406 C 120.085938 19.566406 118.640625 19.90625 117.519531 22.191406 L 112.609375 32.191406 L 101.632812 33.789062 C 99.128906 34.160156 98.355469 35.433594 98.121094 36.160156 C 97.882812 36.882812 97.765625 38.375 99.578125 40.148438 L 107.523438 47.9375 L 105.648438 58.921875 C 105.3125 60.871094 105.828125 61.976562 106.324219 62.558594 C 107.316406 63.746094 109.082031 63.878906 111.027344 62.851562 L 120.847656 57.660156 L 130.664062 62.851562 C 131.546875 63.3125 132.375 63.554688 133.136719 63.554688 C 134.054688 63.554688 134.828125 63.210938 135.367188 62.558594 C 135.863281 61.976562 136.378906 60.871094 136.042969 58.921875 L 134.167969 47.9375 L 142.117188 40.148438 C 143.925781 38.375 143.808594 36.882812 143.570312 36.160156 " fill-opacity="1" fill-rule="nonzero"/><g fill="#5e17eb" fill-opacity="1"><g transform="translate(45.884338, 331.932185)"><g><path d="M 15.09375 0.28125 C 12.351562 0.28125 10.1875 -0.507812 8.59375 -2.09375 C 7 -3.6875 6.203125 -5.851562 6.203125 -8.59375 L 6.203125 -57.96875 C 6.910156 -58.09375 8.023438 -58.265625 9.546875 -58.484375 C 11.078125 -58.710938 12.539062 -58.828125 13.9375 -58.828125 C 15.40625 -58.828125 16.695312 -58.710938 17.8125 -58.484375 C 18.925781 -58.265625 19.863281 -57.867188 20.625 -57.296875 C 21.394531 -56.722656 21.96875 -55.925781 22.34375 -54.90625 C 22.726562 -53.894531 22.921875 -52.5625 22.921875 -50.90625 L 22.921875 -13.171875 L 44.796875 -13.171875 C 45.234375 -12.472656 45.644531 -11.535156 46.03125 -10.359375 C 46.414062 -9.179688 46.609375 -7.957031 46.609375 -6.6875 C 46.609375 -4.132812 46.066406 -2.332031 44.984375 -1.28125 C 43.898438 -0.238281 42.46875 0.28125 40.6875 0.28125 Z M 15.09375 0.28125 "/></g></g></g><g fill="#5e17eb" fill-opacity="1"><g transform="translate(94.868071, 331.932185)"><g><path d="M 53 -23.203125 C 53 -19.253906 52.394531 -15.734375 51.1875 -12.640625 C 49.976562 -9.554688 48.273438 -6.960938 46.078125 -4.859375 C 43.878906 -2.765625 41.25 -1.175781 38.1875 -0.09375 C 35.132812 0.988281 31.734375 1.53125 27.984375 1.53125 C 24.222656 1.53125 20.8125 0.957031 17.75 -0.1875 C 14.695312 -1.332031 12.070312 -2.972656 9.875 -5.109375 C 7.6875 -7.242188 5.984375 -9.835938 4.765625 -12.890625 C 3.554688 -15.941406 2.953125 -19.378906 2.953125 -23.203125 C 2.953125 -26.960938 3.554688 -30.367188 4.765625 -33.421875 C 5.984375 -36.484375 7.6875 -39.078125 9.875 -41.203125 C 12.070312 -43.335938 14.695312 -44.976562 17.75 -46.125 C 20.8125 -47.269531 24.222656 -47.84375 27.984375 -47.84375 C 31.734375 -47.84375 35.132812 -47.253906 38.1875 -46.078125 C 41.25 -44.898438 43.878906 -43.242188 46.078125 -41.109375 C 48.273438 -38.972656 49.976562 -36.378906 51.1875 -33.328125 C 52.394531 -30.273438 53 -26.898438 53 -23.203125 Z M 19.578125 -23.203125 C 19.578125 -19.316406 20.320312 -16.335938 21.8125 -14.265625 C 23.3125 -12.203125 25.398438 -11.171875 28.078125 -11.171875 C 30.753906 -11.171875 32.804688 -12.21875 34.234375 -14.3125 C 35.671875 -16.414062 36.390625 -19.378906 36.390625 -23.203125 C 36.390625 -27.023438 35.65625 -29.96875 34.1875 -32.03125 C 32.726562 -34.101562 30.660156 -35.140625 27.984375 -35.140625 C 25.304688 -35.140625 23.234375 -34.101562 21.765625 -32.03125 C 20.304688 -29.96875 19.578125 -27.023438 19.578125 -23.203125 Z M 19.578125 -23.203125 "/></g></g></g><g fill="#5e17eb" fill-opacity="1"><g transform="translate(150.822204, 331.932185)"><g><path d="M 21.203125 -0.09375 C 20.566406 0.09375 19.5625 0.28125 18.1875 0.46875 C 16.820312 0.664062 15.40625 0.765625 13.9375 0.765625 C 12.539062 0.765625 11.285156 0.664062 10.171875 0.46875 C 9.054688 0.28125 8.113281 -0.0976562 7.34375 -0.671875 C 6.582031 -1.242188 5.992188 -2.019531 5.578125 -3 C 5.171875 -3.988281 4.96875 -5.28125 4.96875 -6.875 L 4.96875 -35.53125 C 4.96875 -36.988281 5.238281 -38.242188 5.78125 -39.296875 C 6.320312 -40.347656 7.101562 -41.285156 8.125 -42.109375 C 9.132812 -42.941406 10.390625 -43.691406 11.890625 -44.359375 C 13.390625 -45.023438 15 -45.613281 16.71875 -46.125 C 18.4375 -46.632812 20.21875 -47.03125 22.0625 -47.3125 C 23.90625 -47.601562 25.75 -47.75 27.59375 -47.75 C 30.65625 -47.75 33.078125 -47.160156 34.859375 -45.984375 C 36.640625 -44.804688 37.53125 -42.878906 37.53125 -40.203125 C 37.53125 -39.316406 37.398438 -38.441406 37.140625 -37.578125 C 36.890625 -36.722656 36.570312 -35.941406 36.1875 -35.234375 C 34.851562 -35.234375 33.484375 -35.171875 32.078125 -35.046875 C 30.679688 -34.921875 29.3125 -34.726562 27.96875 -34.46875 C 26.632812 -34.21875 25.378906 -33.945312 24.203125 -33.65625 C 23.023438 -33.375 22.023438 -33.039062 21.203125 -32.65625 Z M 21.203125 -0.09375 "/></g></g></g><g fill="#5e17eb" fill-opacity="1"><g transform="translate(190.066498, 331.932185)"><g><path d="M 29.515625 1.53125 C 25.753906 1.53125 22.265625 1.003906 19.046875 -0.046875 C 15.835938 -1.097656 13.035156 -2.671875 10.640625 -4.765625 C 8.253906 -6.867188 6.375 -9.507812 5 -12.6875 C 3.632812 -15.875 2.953125 -19.601562 2.953125 -23.875 C 2.953125 -28.070312 3.632812 -31.679688 5 -34.703125 C 6.375 -37.734375 8.175781 -40.21875 10.40625 -42.15625 C 12.632812 -44.101562 15.179688 -45.535156 18.046875 -46.453125 C 20.910156 -47.378906 23.835938 -47.84375 26.828125 -47.84375 C 30.203125 -47.84375 33.273438 -47.332031 36.046875 -46.3125 C 38.816406 -45.300781 41.203125 -43.898438 43.203125 -42.109375 C 45.210938 -40.328125 46.773438 -38.195312 47.890625 -35.71875 C 49.003906 -33.238281 49.5625 -30.53125 49.5625 -27.59375 C 49.5625 -25.4375 48.957031 -23.785156 47.75 -22.640625 C 46.539062 -21.492188 44.851562 -20.757812 42.6875 -20.4375 L 19.09375 -16.90625 C 19.800781 -14.800781 21.234375 -13.222656 23.390625 -12.171875 C 25.554688 -11.117188 28.039062 -10.59375 30.84375 -10.59375 C 33.457031 -10.59375 35.925781 -10.925781 38.25 -11.59375 C 40.570312 -12.269531 42.46875 -13.050781 43.9375 -13.9375 C 44.945312 -13.300781 45.800781 -12.410156 46.5 -11.265625 C 47.207031 -10.117188 47.5625 -8.910156 47.5625 -7.640625 C 47.5625 -4.773438 46.222656 -2.640625 43.546875 -1.234375 C 41.503906 -0.160156 39.210938 0.566406 36.671875 0.953125 C 34.128906 1.335938 31.742188 1.53125 29.515625 1.53125 Z M 26.828125 -36 C 25.304688 -36 23.988281 -35.742188 22.875 -35.234375 C 21.757812 -34.722656 20.847656 -34.070312 20.140625 -33.28125 C 19.441406 -32.488281 18.914062 -31.597656 18.5625 -30.609375 C 18.21875 -29.617188 18.015625 -28.613281 17.953125 -27.59375 L 34.28125 -30.28125 C 34.09375 -31.550781 33.394531 -32.820312 32.1875 -34.09375 C 30.976562 -35.363281 29.191406 -36 26.828125 -36 Z M 26.828125 -36 "/></g></g></g><g fill="#5e17eb" fill-opacity="1"><g transform="translate(242.487694, 331.932185)"><g><path d="M 27.21875 -47.84375 C 29.832031 -47.84375 32.394531 -47.476562 34.90625 -46.75 C 37.414062 -46.019531 39.597656 -44.921875 41.453125 -43.453125 C 43.359375 -44.722656 45.503906 -45.769531 47.890625 -46.59375 C 50.273438 -47.425781 53.15625 -47.84375 56.53125 -47.84375 C 58.957031 -47.84375 61.332031 -47.523438 63.65625 -46.890625 C 65.976562 -46.253906 68.046875 -45.25 69.859375 -43.875 C 71.671875 -42.507812 73.117188 -40.695312 74.203125 -38.4375 C 75.285156 -36.175781 75.828125 -33.421875 75.828125 -30.171875 L 75.828125 -0.09375 C 75.191406 0.09375 74.1875 0.28125 72.8125 0.46875 C 71.445312 0.664062 70.03125 0.765625 68.5625 0.765625 C 67.164062 0.765625 65.910156 0.664062 64.796875 0.46875 C 63.679688 0.28125 62.738281 -0.0976562 61.96875 -0.671875 C 61.207031 -1.242188 60.617188 -2.019531 60.203125 -3 C 59.796875 -3.988281 59.59375 -5.28125 59.59375 -6.875 L 59.59375 -29.703125 C 59.59375 -31.609375 59.050781 -32.988281 57.96875 -33.84375 C 56.882812 -34.707031 55.421875 -35.140625 53.578125 -35.140625 C 52.679688 -35.140625 51.722656 -34.929688 50.703125 -34.515625 C 49.691406 -34.109375 48.929688 -33.679688 48.421875 -33.234375 C 48.484375 -32.984375 48.515625 -32.742188 48.515625 -32.515625 C 48.515625 -32.296875 48.515625 -32.085938 48.515625 -31.890625 L 48.515625 -0.09375 C 47.816406 0.09375 46.78125 0.28125 45.40625 0.46875 C 44.039062 0.664062 42.65625 0.765625 41.25 0.765625 C 39.851562 0.765625 38.597656 0.664062 37.484375 0.46875 C 36.367188 0.28125 35.425781 -0.0976562 34.65625 -0.671875 C 33.894531 -1.242188 33.304688 -2.019531 32.890625 -3 C 32.484375 -3.988281 32.28125 -5.28125 32.28125 -6.875 L 32.28125 -29.703125 C 32.28125 -31.609375 31.691406 -32.988281 30.515625 -33.84375 C 29.335938 -34.707031 27.921875 -35.140625 26.265625 -35.140625 C 25.117188 -35.140625 24.128906 -34.960938 23.296875 -34.609375 C 22.472656 -34.265625 21.773438 -33.929688 21.203125 -33.609375 L 21.203125 -0.09375 C 20.566406 0.09375 19.5625 0.28125 18.1875 0.46875 C 16.820312 0.664062 15.40625 0.765625 13.9375 0.765625 C 12.539062 0.765625 11.285156 0.664062 10.171875 0.46875 C 9.054688 0.28125 8.113281 -0.0976562 7.34375 -0.671875 C 6.582031 -1.242188 5.992188 -2.019531 5.578125 -3 C 5.171875 -3.988281 4.96875 -5.28125 4.96875 -6.875 L 4.96875 -35.71875 C 4.96875 -37.4375 5.332031 -38.800781 6.0625 -39.8125 C 6.789062 -40.832031 7.796875 -41.789062 9.078125 -42.6875 C 11.234375 -44.21875 13.921875 -45.457031 17.140625 -46.40625 C 20.359375 -47.363281 23.71875 -47.84375 27.21875 -47.84375 Z M 27.21875 -47.84375 "/></g></g></g><g fill="#737373" fill-opacity="1"><g transform="translate(72.777574, 369.989712)"><g><path d="M 10.78125 0 L 2.703125 0 L 2.703125 -2.046875 L 5.6875 -2.046875 L 5.6875 -11.6875 L 2.703125 -11.6875 L 2.703125 -13.734375 L 10.78125 -13.734375 L 10.78125 -11.6875 L 7.796875 -11.6875 L 7.796875 -2.046875 L 10.78125 -2.046875 Z M 10.78125 0 "/></g></g></g><g fill="#737373" fill-opacity="1"><g transform="translate(90.761681, 369.989712)"><g><path d="M 9.78125 -13.734375 C 10.570312 -13.734375 11.289062 -13.546875 11.9375 -13.171875 C 12.582031 -12.796875 13.097656 -12.289062 13.484375 -11.65625 C 13.867188 -11.019531 14.0625 -10.304688 14.0625 -9.515625 C 14.0625 -8.703125 13.859375 -7.960938 13.453125 -7.296875 C 13.046875 -6.640625 12.5 -6.113281 11.8125 -5.71875 C 11.125 -5.332031 10.375 -5.140625 9.5625 -5.140625 L 4.96875 -5.140625 L 4.96875 0 L 2.84375 0 L 2.84375 -13.734375 Z M 9.453125 -7.171875 C 9.878906 -7.171875 10.273438 -7.28125 10.640625 -7.5 C 11.015625 -7.71875 11.304688 -8.003906 11.515625 -8.359375 C 11.734375 -8.710938 11.84375 -9.097656 11.84375 -9.515625 C 11.84375 -9.921875 11.734375 -10.285156 11.515625 -10.609375 C 11.304688 -10.929688 11.015625 -11.191406 10.640625 -11.390625 C 10.273438 -11.585938 9.878906 -11.6875 9.453125 -11.6875 L 4.96875 -11.6875 L 4.96875 -7.171875 Z M 9.453125 -7.171875 "/></g></g></g><g fill="#737373" fill-opacity="1"><g transform="translate(111.17428, 369.989712)"><g><path d="M 3.21875 -4.203125 C 3.894531 -3.398438 4.601562 -2.78125 5.34375 -2.34375 C 6.082031 -1.914062 6.988281 -1.703125 8.0625 -1.703125 C 8.632812 -1.703125 9.1875 -1.773438 9.71875 -1.921875 C 10.25 -2.078125 10.6875 -2.304688 11.03125 -2.609375 C 11.375 -2.921875 11.546875 -3.304688 11.546875 -3.765625 C 11.546875 -4.421875 11.195312 -4.890625 10.5 -5.171875 C 9.8125 -5.460938 8.84375 -5.703125 7.59375 -5.890625 C 6.050781 -6.117188 4.820312 -6.550781 3.90625 -7.1875 C 2.988281 -7.820312 2.53125 -8.75 2.53125 -9.96875 C 2.53125 -10.789062 2.773438 -11.492188 3.265625 -12.078125 C 3.753906 -12.671875 4.414062 -13.125 5.25 -13.4375 C 6.09375 -13.757812 7.015625 -13.921875 8.015625 -13.921875 C 9.273438 -13.921875 10.359375 -13.710938 11.265625 -13.296875 C 12.179688 -12.878906 12.90625 -12.285156 13.4375 -11.515625 L 11.984375 -10 C 11.546875 -10.601562 10.988281 -11.085938 10.3125 -11.453125 C 9.632812 -11.828125 8.851562 -12.015625 7.96875 -12.015625 C 7.050781 -12.015625 6.285156 -11.847656 5.671875 -11.515625 C 5.054688 -11.179688 4.75 -10.71875 4.75 -10.125 C 4.75 -9.414062 5.078125 -8.910156 5.734375 -8.609375 C 6.390625 -8.316406 7.253906 -8.085938 8.328125 -7.921875 C 9.035156 -7.816406 9.710938 -7.675781 10.359375 -7.5 C 11.003906 -7.332031 11.582031 -7.109375 12.09375 -6.828125 C 12.601562 -6.546875 13.007812 -6.191406 13.3125 -5.765625 C 13.613281 -5.335938 13.765625 -4.800781 13.765625 -4.15625 C 13.765625 -3.28125 13.53125 -2.515625 13.0625 -1.859375 C 12.59375 -1.203125 11.921875 -0.691406 11.046875 -0.328125 C 10.179688 0.0234375 9.15625 0.203125 7.96875 0.203125 C 6.695312 0.203125 5.550781 -0.00390625 4.53125 -0.421875 C 3.507812 -0.847656 2.613281 -1.53125 1.84375 -2.46875 Z M 3.21875 -4.203125 "/></g></g></g><g fill="#737373" fill-opacity="1"><g transform="translate(131.293102, 369.989712)"><g><path d="M 15.21875 -13.75 L 15.21875 -6 C 15.21875 -4.820312 14.953125 -3.769531 14.421875 -2.84375 C 13.890625 -1.925781 13.15625 -1.203125 12.21875 -0.671875 C 11.28125 -0.140625 10.179688 0.125 8.921875 0.125 C 7.679688 0.125 6.585938 -0.140625 5.640625 -0.671875 C 4.691406 -1.203125 3.953125 -1.925781 3.421875 -2.84375 C 2.890625 -3.769531 2.625 -4.820312 2.625 -6 L 2.625 -13.75 L 4.75 -13.75 L 4.75 -6.125 C 4.75 -5.3125 4.9375 -4.585938 5.3125 -3.953125 C 5.695312 -3.316406 6.203125 -2.820312 6.828125 -2.46875 C 7.460938 -2.113281 8.160156 -1.9375 8.921875 -1.9375 C 9.734375 -1.9375 10.457031 -2.113281 11.09375 -2.46875 C 11.738281 -2.820312 12.25 -3.316406 12.625 -3.953125 C 13.007812 -4.585938 13.203125 -5.3125 13.203125 -6.125 L 13.203125 -13.75 Z M 15.21875 -13.75 "/></g></g></g><g fill="#737373" fill-opacity="1"><g transform="translate(153.605397, 369.989712)"><g><path d="M 4.921875 -13.734375 L 10.203125 -6.40625 L 15.484375 -13.734375 L 17.53125 -13.734375 L 17.53125 0 L 15.40625 0 L 15.40625 -5.75 C 15.40625 -6.582031 15.414062 -7.375 15.4375 -8.125 C 15.46875 -8.875 15.53125 -9.628906 15.625 -10.390625 L 10.8125 -3.9375 L 9.515625 -3.9375 L 4.75 -10.375 C 4.832031 -9.625 4.890625 -8.875 4.921875 -8.125 C 4.953125 -7.375 4.96875 -6.582031 4.96875 -5.75 L 4.96875 0 L 2.84375 0 L 2.84375 -13.734375 Z M 4.921875 -13.734375 "/></g></g></g><g fill="#737373" fill-opacity="1"><g transform="translate(178.444115, 369.989712)"><g/></g></g><g fill="#737373" fill-opacity="1"><g transform="translate(190.670362, 369.989712)"><g><path d="M 9.09375 -13.734375 C 10.269531 -13.734375 11.300781 -13.550781 12.1875 -13.1875 C 13.082031 -12.820312 13.828125 -12.320312 14.421875 -11.6875 C 15.023438 -11.0625 15.476562 -10.332031 15.78125 -9.5 C 16.082031 -8.664062 16.234375 -7.785156 16.234375 -6.859375 C 16.234375 -5.609375 15.960938 -4.460938 15.421875 -3.421875 C 14.890625 -2.378906 14.09375 -1.546875 13.03125 -0.921875 C 11.976562 -0.304688 10.664062 0 9.09375 0 L 2.84375 0 L 2.84375 -13.734375 Z M 9 -2.046875 C 10.175781 -2.046875 11.132812 -2.265625 11.875 -2.703125 C 12.613281 -3.140625 13.15625 -3.71875 13.5 -4.4375 C 13.84375 -5.164062 14.015625 -5.972656 14.015625 -6.859375 C 14.015625 -7.722656 13.84375 -8.519531 13.5 -9.25 C 13.15625 -9.988281 12.613281 -10.578125 11.875 -11.015625 C 11.132812 -11.460938 10.175781 -11.6875 9 -11.6875 L 4.96875 -11.6875 L 4.96875 -2.046875 Z M 9 -2.046875 "/></g></g></g><g fill="#737373" fill-opacity="1"><g transform="translate(213.198085, 369.989712)"><g><path d="M 17.015625 -6.859375 C 17.015625 -5.867188 16.828125 -4.941406 16.453125 -4.078125 C 16.085938 -3.222656 15.5625 -2.472656 14.875 -1.828125 C 14.195312 -1.191406 13.394531 -0.691406 12.46875 -0.328125 C 11.539062 0.0234375 10.53125 0.203125 9.4375 0.203125 C 8.3125 0.203125 7.285156 0.0234375 6.359375 -0.328125 C 5.429688 -0.691406 4.628906 -1.191406 3.953125 -1.828125 C 3.273438 -2.472656 2.75 -3.222656 2.375 -4.078125 C 2.007812 -4.941406 1.828125 -5.867188 1.828125 -6.859375 C 1.828125 -7.859375 2.007812 -8.785156 2.375 -9.640625 C 2.75 -10.492188 3.273438 -11.238281 3.953125 -11.875 C 4.628906 -12.519531 5.429688 -13.019531 6.359375 -13.375 C 7.285156 -13.738281 8.3125 -13.921875 9.4375 -13.921875 C 10.53125 -13.921875 11.539062 -13.738281 12.46875 -13.375 C 13.394531 -13.019531 14.195312 -12.519531 14.875 -11.875 C 15.5625 -11.238281 16.085938 -10.492188 16.453125 -9.640625 C 16.828125 -8.785156 17.015625 -7.859375 17.015625 -6.859375 Z M 14.859375 -6.859375 C 14.859375 -7.816406 14.625 -8.671875 14.15625 -9.421875 C 13.695312 -10.171875 13.054688 -10.765625 12.234375 -11.203125 C 11.421875 -11.640625 10.488281 -11.859375 9.4375 -11.859375 C 8.34375 -11.859375 7.390625 -11.640625 6.578125 -11.203125 C 5.765625 -10.765625 5.128906 -10.171875 4.671875 -9.421875 C 4.210938 -8.671875 3.984375 -7.816406 3.984375 -6.859375 C 3.984375 -5.910156 4.210938 -5.054688 4.671875 -4.296875 C 5.128906 -3.546875 5.765625 -2.953125 6.578125 -2.515625 C 7.390625 -2.078125 8.34375 -1.859375 9.4375 -1.859375 C 10.488281 -1.859375 11.421875 -2.078125 12.234375 -2.515625 C 13.054688 -2.953125 13.695312 -3.550781 14.15625 -4.3125 C 14.625 -5.070312 14.859375 -5.921875 14.859375 -6.859375 Z M 14.859375 -6.859375 "/></g></g></g><g fill="#737373" fill-opacity="1"><g transform="translate(236.509209, 369.989712)"><g><path d="M 12.921875 -2.046875 L 12.921875 0 L 2.84375 0 L 2.84375 -13.734375 L 4.96875 -13.734375 L 4.96875 -2.046875 Z M 12.921875 -2.046875 "/></g></g></g><g fill="#737373" fill-opacity="1"><g transform="translate(256.001339, 369.989712)"><g><path d="M 17.015625 -6.859375 C 17.015625 -5.867188 16.828125 -4.941406 16.453125 -4.078125 C 16.085938 -3.222656 15.5625 -2.472656 14.875 -1.828125 C 14.195312 -1.191406 13.394531 -0.691406 12.46875 -0.328125 C 11.539062 0.0234375 10.53125 0.203125 9.4375 0.203125 C 8.3125 0.203125 7.285156 0.0234375 6.359375 -0.328125 C 5.429688 -0.691406 4.628906 -1.191406 3.953125 -1.828125 C 3.273438 -2.472656 2.75 -3.222656 2.375 -4.078125 C 2.007812 -4.941406 1.828125 -5.867188 1.828125 -6.859375 C 1.828125 -7.859375 2.007812 -8.785156 2.375 -9.640625 C 2.75 -10.492188 3.273438 -11.238281 3.953125 -11.875 C 4.628906 -12.519531 5.429688 -13.019531 6.359375 -13.375 C 7.285156 -13.738281 8.3125 -13.921875 9.4375 -13.921875 C 10.53125 -13.921875 11.539062 -13.738281 12.46875 -13.375 C 13.394531 -13.019531 14.195312 -12.519531 14.875 -11.875 C 15.5625 -11.238281 16.085938 -10.492188 16.453125 -9.640625 C 16.828125 -8.785156 17.015625 -7.859375 17.015625 -6.859375 Z M 14.859375 -6.859375 C 14.859375 -7.816406 14.625 -8.671875 14.15625 -9.421875 C 13.695312 -10.171875 13.054688 -10.765625 12.234375 -11.203125 C 11.421875 -11.640625 10.488281 -11.859375 9.4375 -11.859375 C 8.34375 -11.859375 7.390625 -11.640625 6.578125 -11.203125 C 5.765625 -10.765625 5.128906 -10.171875 4.671875 -9.421875 C 4.210938 -8.671875 3.984375 -7.816406 3.984375 -6.859375 C 3.984375 -5.910156 4.210938 -5.054688 4.671875 -4.296875 C 5.128906 -3.546875 5.765625 -2.953125 6.578125 -2.515625 C 7.390625 -2.078125 8.34375 -1.859375 9.4375 -1.859375 C 10.488281 -1.859375 11.421875 -2.078125 12.234375 -2.515625 C 13.054688 -2.953125 13.695312 -3.550781 14.15625 -4.3125 C 14.625 -5.070312 14.859375 -5.921875 14.859375 -6.859375 Z M 14.859375 -6.859375 "/></g></g></g><g fill="#737373" fill-opacity="1"><g transform="translate(279.312452, 369.989712)"><g><path d="M 14.3125 -9.4375 C 14.3125 -8.53125 14.03125 -7.707031 13.46875 -6.96875 C 12.90625 -6.226562 12.191406 -5.703125 11.328125 -5.390625 L 15 0.015625 L 12.390625 0 L 8.96875 -5.09375 L 4.96875 -5.09375 L 4.96875 0 L 2.84375 0 L 2.84375 -13.734375 L 9.90625 -13.734375 C 10.675781 -13.734375 11.394531 -13.546875 12.0625 -13.171875 C 12.726562 -12.804688 13.269531 -12.300781 13.6875 -11.65625 C 14.101562 -11.019531 14.3125 -10.28125 14.3125 -9.4375 Z M 9.40625 -11.6875 L 4.96875 -11.6875 L 4.96875 -7.140625 L 9.671875 -7.140625 C 10.128906 -7.140625 10.539062 -7.242188 10.90625 -7.453125 C 11.269531 -7.671875 11.554688 -7.957031 11.765625 -8.3125 C 11.984375 -8.664062 12.09375 -9.046875 12.09375 -9.453125 C 12.09375 -9.878906 11.96875 -10.265625 11.71875 -10.609375 C 11.476562 -10.953125 11.15625 -11.21875 10.75 -11.40625 C 10.34375 -11.59375 9.894531 -11.6875 9.40625 -11.6875 Z M 9.40625 -11.6875 "/></g></g></g></svg>